<svg width="141" height="70" viewBox="0 0 141 70" fill="none" xmlns="http://www.w3.org/2000/svg">
<g clip-path="url(#clip0_305_392)">
<path d="M58.9734 70.145H11.0373C4.89146 70.145 -0.0917969 65.1617 -0.0917969 59.0159V11.0798C-0.0917969 4.93394 4.89146 -0.0493164 11.0373 -0.0493164H58.9734C65.1192 -0.0493164 70.1025 4.93394 70.1025 11.0798V59.0159C70.1025 65.1617 65.1192 70.145 58.9734 70.145Z" fill="#FF5814"/>
<path d="M31.1516 33.0171H20.2322C19.93 33.0171 19.6895 32.7735 19.6895 32.4713V21.5519C19.6895 21.2497 19.9331 21.0061 20.2322 21.0061H31.1516C31.4507 21.0061 31.6943 21.2497 31.6943 21.5519V32.4713C31.6943 32.7704 31.4538 33.0171 31.1516 33.0171Z" fill="#2D3652"/>
<path d="M31.1516 50.801H20.2322C19.93 50.801 19.6895 50.5574 19.6895 50.2583V39.3389C19.6895 39.0398 19.9331 38.7961 20.2322 38.7961H31.1516C31.4507 38.7961 31.6943 39.0398 31.6943 39.3389V50.2583C31.6943 50.5574 31.4538 50.801 31.1516 50.801Z" fill="white"/>
<path d="M49.6711 33.0171H38.7517C38.4495 33.0171 38.209 32.7735 38.209 32.4713V21.5519C38.209 21.2497 38.4526 21.0061 38.7517 21.0061H49.6711C49.9702 21.0061 50.2138 21.2497 50.2138 21.5519V32.4713C50.2169 32.7704 49.9733 33.0171 49.6711 33.0171Z" fill="white"/>
<path d="M64.4695 16.615H14.825V62.1767C14.825 63.0524 13.7365 63.4626 13.1598 62.7996L7.75408 56.589C7.34703 56.1234 7.125 55.5251 7.125 54.9053V13.741C7.125 11.2401 9.15407 9.21411 11.6519 9.21411H57.0501C57.2105 9.21411 57.3647 9.26962 57.488 9.37138L64.9105 15.3753C65.4224 15.7886 65.1294 16.615 64.4695 16.615Z" fill="#2D3652"/>
<path d="M80.0831 30.1863H77.0703V13.9321H87.3452V16.4453H80.0831V20.8859H85.7972V23.3282H80.0831V30.1863Z" fill="#2D3652"/>
<path d="M98.3165 30.1864H95.7323C95.5011 29.4555 95.3623 28.6476 95.316 27.7564C94.5945 29.5419 93.2376 30.4361 91.2425 30.4361C90.0429 30.4361 89.0808 30.0846 88.3561 29.3815C87.6315 28.6784 87.2676 27.7965 87.2676 26.7326C87.2676 23.9696 89.6914 22.5881 94.542 22.5881C94.7332 22.5881 94.9892 22.5912 95.316 22.6005V21.6969C95.316 20.4511 94.468 19.8282 92.7689 19.8282C91.1191 19.8282 90.1817 20.4511 89.9597 21.6969L87.65 21.3516C87.7764 20.3524 88.2914 19.5291 89.198 18.8815C90.1015 18.2339 91.4121 17.9102 93.1266 17.9102C94.0548 17.9102 94.8134 17.9872 95.4024 18.1414C95.9883 18.2956 96.4848 18.5577 96.8918 18.9278C97.2958 19.2978 97.5764 19.6987 97.7306 20.1304C97.8848 20.5621 97.9618 21.2961 97.9618 22.326V27.7564C97.9618 28.5428 98.079 29.3507 98.3165 30.1864ZM95.316 24.0652C91.8068 24.0652 90.0522 24.904 90.0522 26.5784C90.0522 27.078 90.2279 27.5066 90.5826 27.8582C90.9372 28.2128 91.4707 28.3886 92.183 28.3886C93.216 28.3886 93.9962 28.0617 94.5235 27.4049C95.0508 26.748 95.316 26.0049 95.316 25.1723V24.0652Z" fill="#2D3652"/>
<path d="M118.559 30.1864H115.712V22.6961C115.712 21.1419 115.022 20.3617 113.64 20.3617C112.838 20.3617 112.197 20.6546 111.716 21.2436C111.235 21.8326 110.994 22.7084 110.994 23.874V30.1833H108.114V22.6961C108.114 21.1172 107.466 20.3278 106.174 20.3278C105.388 20.3278 104.728 20.6454 104.192 21.2806C103.655 21.9159 103.387 22.7824 103.387 23.8771V30.1864H100.59V18.1599H103.22V20.7194C104.078 18.8445 105.416 17.9102 107.232 17.9102C109.002 17.9102 110.152 18.8476 110.686 20.7194C111.654 18.8445 112.992 17.9102 114.698 17.9102C115.857 17.9102 116.789 18.2709 117.495 18.9925C118.201 19.7141 118.555 20.6115 118.555 21.6846V30.1864H118.559Z" fill="#2D3652"/>
<path d="M123.915 16.7537H121.201V13.9321H123.915V16.7537ZM123.915 30.1863H121.201V18.1599H123.915V30.1863Z" fill="#2D3652"/>
<path d="M129.296 30.1863H126.582V13.9321H129.296V30.1863Z" fill="#2D3652"/>
<path d="M140.948 18.1599L136.27 31.8515C135.984 32.6934 135.592 33.3471 135.099 33.8097C134.602 34.2753 133.902 34.5066 132.996 34.5066C132.638 34.5066 132.12 34.4789 131.435 34.4234V32.2678L132.733 32.2925C133.304 32.2925 133.726 32.2 134.001 32.0119C134.275 31.8238 134.491 31.4938 134.648 31.0189C134.806 30.5441 134.886 30.2634 134.886 30.1863C134.886 30.1401 134.803 29.8934 134.636 29.4493L130.504 18.163H133.35L136.267 26.0943L138.781 18.163H140.948V18.1599Z" fill="#2D3652"/>
<path d="M86.1994 53.1412H85.4131C84.38 50.1161 83.1219 46.7086 81.6386 42.9126C80.399 39.7518 79.6928 38.0126 79.5201 37.6857C79.3999 37.4699 79.258 37.3064 79.0915 37.1923C78.925 37.0782 78.3329 36.8778 77.3184 36.591V35.8879C79.0329 35.9743 80.1615 36.0175 80.7012 36.0175C81.4721 36.0175 82.5977 35.9743 84.084 35.8879V36.591C83.9421 36.6311 83.8342 36.6589 83.7633 36.6743C82.9862 36.8655 82.5267 37.0166 82.388 37.1338C82.2492 37.2509 82.1783 37.3805 82.1783 37.5316C82.1783 37.6117 82.1906 37.6981 82.2153 37.7937C82.3571 38.3734 82.9523 40.0941 83.9977 42.9527L86.258 49.1818C87.2355 46.6562 88.0897 44.3188 88.8206 42.1664C89.7426 39.4743 90.236 37.9818 90.2977 37.6888C90.3131 37.6241 90.3223 37.5686 90.3223 37.5223C90.3223 37.3712 90.2637 37.2478 90.1435 37.1523C89.9677 37.0166 89.388 36.8192 88.4043 36.5571V35.891C88.4505 35.891 88.7373 35.9034 89.2615 35.928C90.4827 35.9928 91.269 36.0236 91.6206 36.0236C92.2959 36.0236 93.1007 35.9804 94.0382 35.8941V36.5602C93.2118 36.776 92.6875 36.9641 92.4655 37.1245C92.2435 37.2879 92.0122 37.6426 91.7747 38.1915C91.2906 39.2862 90.0725 42.5179 88.1206 47.8835L86.1994 53.1412Z" fill="#2D3652"/>
<path d="M94.4629 43.1748V42.5087C95.7981 42.1664 97.0501 41.6607 98.225 40.9854L98.5334 41.2352C98.373 42.9189 98.2959 45.3026 98.2959 48.3924C98.2959 49.8387 98.3329 50.7268 98.4039 51.0598C98.4501 51.2819 98.5334 51.4422 98.6536 51.5409C98.7739 51.6396 99.184 51.7937 99.8933 52.0004C99.9796 52.025 100.112 52.0651 100.285 52.1206V52.7867C99.2457 52.7004 98.3915 52.6572 97.7255 52.6572C97.3215 52.6572 96.2329 52.7004 94.4629 52.7867V52.1206C95.536 51.8585 96.1373 51.618 96.273 51.399C96.4087 51.1801 96.4765 50.0391 96.4765 47.9761L96.4642 45.4413V44.9541C96.4642 44.066 96.4056 43.5294 96.2854 43.3475C96.1651 43.1656 95.977 43.073 95.7149 43.073C95.5484 43.0669 95.1321 43.1039 94.4629 43.1748ZM97.4294 35.2559C97.7779 35.2559 98.0739 35.3761 98.3175 35.6197C98.5611 35.8633 98.6814 36.1563 98.6814 36.5078C98.6814 36.8501 98.5611 37.1431 98.3175 37.3898C98.0739 37.6365 97.781 37.7598 97.4294 37.7598C97.0871 37.7598 96.7973 37.6365 96.5536 37.3898C96.31 37.1431 96.1898 36.8501 96.1898 36.5078C96.1898 36.1594 96.31 35.8633 96.5536 35.6197C96.7942 35.3761 97.0871 35.2559 97.4294 35.2559Z" fill="#2D3652"/>
<path d="M100.48 37.5316V36.8655C102.028 36.3906 103.327 35.8603 104.375 35.2805L104.684 35.555C104.468 37.1184 104.363 39.462 104.363 42.5796L104.375 43.5911C105.565 42.3453 106.34 41.6206 106.697 41.4171C107.055 41.2136 107.554 41.1149 108.199 41.1149C108.954 41.1149 109.661 41.2968 110.317 41.6638C110.977 42.0277 111.483 42.592 111.835 43.3536C112.189 44.1153 112.365 45.0096 112.365 46.0334C112.365 48.0193 111.702 49.6876 110.376 51.0413C109.05 52.3951 107.456 53.0704 105.59 53.0704C104.557 53.0704 103.475 52.7959 102.34 52.2501C102.46 49.5426 102.519 46.018 102.519 41.6761L102.494 39.2585V38.7096C102.494 38.1607 102.436 37.8061 102.315 37.6365C102.195 37.4699 102.022 37.3867 101.791 37.3867C101.544 37.3867 101.11 37.436 100.48 37.5316ZM104.375 51.1523C105.121 51.581 105.877 51.7937 106.639 51.7937C107.712 51.7937 108.584 51.4021 109.263 50.6219C109.941 49.8387 110.28 48.6545 110.28 47.0664C110.28 45.6788 110 44.6365 109.442 43.9457C108.88 43.255 108.208 42.9096 107.425 42.9096C106.941 42.9096 106.484 43.036 106.056 43.292C105.627 43.5448 105.266 43.8871 104.977 44.3158C104.687 44.7444 104.505 45.1607 104.434 45.5647C104.394 45.8021 104.375 46.425 104.375 47.4334V51.1523Z" fill="#2D3652"/>
<path d="M123.393 49.9036L123.846 50.6067L121.474 52.3582C121.148 52.5802 120.811 52.7437 120.46 52.8454C119.951 52.9965 119.43 53.0705 118.9 53.0705C117.604 53.0705 116.497 52.5494 115.578 51.5102C114.66 50.471 114.203 49.0648 114.203 47.2948C114.203 45.389 114.752 43.8626 115.853 42.7093C116.954 41.5591 118.298 40.9824 119.889 40.9824C121.12 40.9824 122.073 41.3216 122.745 42C123.417 42.6785 123.76 43.7177 123.775 45.1146C123.442 45.3058 123.14 45.5401 122.862 45.8177C122.298 45.8084 121.943 45.8053 121.801 45.8053C119.695 45.8053 117.863 45.8362 116.306 45.9009C116.297 47.6802 116.599 49.0247 117.21 49.9375C117.82 50.8595 118.637 51.319 119.664 51.319C120.179 51.319 120.719 51.2172 121.283 51.0137C121.848 50.8133 122.551 50.4432 123.393 49.9036ZM121.666 44.6859C121.619 43.8996 121.444 43.3044 121.141 42.9005C120.694 42.3053 120.096 42.0062 119.341 42.0062C118.687 42.0062 118.107 42.2313 117.598 42.6785C117.089 43.1287 116.71 43.8688 116.463 44.8987C116.756 44.908 116.982 44.9111 117.133 44.9111C118.437 44.9141 119.948 44.8371 121.666 44.6859Z" fill="#2D3652"/>
<path d="M132.445 44.3405L131.612 44.2696C131.557 43.5727 131.31 43.0207 130.869 42.6136C130.428 42.2066 129.879 42.0061 129.219 42.0061C128.649 42.0061 128.193 42.1603 127.856 42.4656C127.52 42.7709 127.351 43.1224 127.351 43.5202C127.351 43.8687 127.48 44.1956 127.742 44.4978C128.106 44.911 128.893 45.4136 130.101 46.0088C131.307 46.6039 132.121 47.1621 132.544 47.6863C132.957 48.2198 133.164 48.8211 133.164 49.4965C133.164 50.4647 132.775 51.3035 131.998 52.0097C131.221 52.7158 130.157 53.0705 128.806 53.0705C127.829 53.0705 126.749 52.8515 125.568 52.4167C125.695 51.2973 125.76 50.2735 125.76 49.3454H126.58C126.811 50.2828 127.163 50.952 127.634 51.359C128.106 51.763 128.689 51.9665 129.38 51.9665C130 51.9665 130.481 51.8092 130.82 51.4947C131.159 51.1802 131.332 50.7824 131.332 50.2982C131.332 49.8295 131.165 49.3978 130.832 49C130.49 48.6022 129.731 48.1119 128.556 47.5229C127.382 46.937 126.598 46.4035 126.21 45.9286C125.812 45.4537 125.615 44.9141 125.615 44.3097C125.615 43.4524 126 42.6846 126.777 42.0061C127.551 41.3277 128.581 40.9885 129.867 40.9885C130.764 40.9885 131.733 41.1982 132.772 41.6207C132.655 42.259 132.547 43.1656 132.445 44.3405Z" fill="#2D3652"/>
</g>
<defs>
<clipPath id="clip0_305_392">
<rect width="140.925" height="70" fill="white"/>
</clipPath>
</defs>
</svg>
