<svg width="149" height="55" viewBox="0 0 149 55" fill="none" xmlns="http://www.w3.org/2000/svg">
<path d="M26.3271 16.8019C30.7618 12.3658 42.0314 3.45716 58.5113 2.08341C79.1113 0.366231 101.431 0.488641 114.735 3.92301C128.039 7.35738 141.343 14.6555 144.348 19.807C147.352 24.9586 147.837 29.6894 145.635 33.1152C141.773 39.1254 138.375 41.8246 128.036 45.8716C109.296 53.2072 76.1071 53.1696 69.6728 53.7214C63.2384 54.2732 33.1938 54.1507 23.323 52.0042C13.4522 49.8577 8.72811 48.0181 3.57814 43.2958C-2.35192 37.8583 3.43512 25.9809 6.15317 22.6896C12.1615 17.1088 14.2921 15.2152 22.4614 12.3865C33.6197 8.52283 37.9146 7.35743 51.6479 7.78672" stroke="#FF743C" stroke-opacity="0.37" stroke-width="2"/>
</svg>