<svg width="37" height="36" viewBox="0 0 37 36" fill="none" xmlns="http://www.w3.org/2000/svg">
<g clip-path="url(#clip0_417_197)">
<path fill-rule="evenodd" clip-rule="evenodd" d="M36.1981 17.9194C36.1981 8.08303 28.2225 0.107422 18.3862 0.107422C8.54983 0.107422 0.574219 8.08303 0.574219 17.9194C0.574219 26.8094 7.08671 34.1783 15.603 35.5158V23.0697H11.0793V17.9194H15.603V13.9952C15.603 9.53184 18.2629 7.06441 22.331 7.06441C24.28 7.06441 26.3188 7.4127 26.3188 7.4127V11.7965H24.0717C21.8603 11.7965 21.1685 13.169 21.1685 14.5796V17.9194H26.1081L25.3193 23.0697H21.1693V35.5174C29.6856 34.1807 36.1981 26.8118 36.1981 17.9194Z" fill="white"/>
</g>
<defs>
<clipPath id="clip0_417_197">
<rect width="36" height="36" fill="white" transform="translate(0.5)"/>
</clipPath>
</defs>
</svg>
