<svg width="38" height="36" viewBox="0 0 38 36" fill="none" xmlns="http://www.w3.org/2000/svg">
<path fill-rule="evenodd" clip-rule="evenodd" d="M26.4306 2.96839C28.3972 2.97426 30.2817 3.75813 31.6723 5.14878C33.063 6.53944 33.8469 8.42388 33.8527 10.3906V25.2333C33.8469 27.2 33.063 29.0844 31.6723 30.4751C30.2817 31.8657 28.3972 32.6496 26.4306 32.6555H11.5878C9.62115 32.6496 7.7367 31.8657 6.34605 30.4751C4.95539 29.0844 4.17153 27.2 4.16566 25.2333V10.3906C4.17153 8.42388 4.95539 6.53944 6.34605 5.14878C7.7367 3.75813 9.62115 2.97426 11.5878 2.96839H26.4306ZM26.4306 0H11.5878C5.8729 0 1.19727 4.67563 1.19727 10.3906V25.2333C1.19727 30.9482 5.8729 35.6239 11.5878 35.6239H26.4306C32.1455 35.6239 36.8211 30.9482 36.8211 25.2333V10.3906C36.8211 4.67563 32.1455 0 26.4306 0ZM28.6581 10.3907C28.2178 10.3907 27.7873 10.2601 27.4212 10.0155C27.055 9.77085 26.7696 9.42311 26.6011 9.01628C26.4326 8.60944 26.3885 8.16177 26.4744 7.72987C26.5603 7.29797 26.7724 6.90125 27.0838 6.58987C27.3951 6.27849 27.7919 6.06644 28.2238 5.98053C28.6557 5.89462 29.1033 5.93871 29.5102 6.10723C29.917 6.27574 30.2647 6.56112 30.5094 6.92726C30.754 7.29341 30.8846 7.72388 30.8846 8.16424C30.8853 8.4568 30.8281 8.74661 30.7164 9.01702C30.6048 9.28744 30.4408 9.53313 30.2339 9.74001C30.027 9.94688 29.7813 10.1109 29.5109 10.2225C29.2405 10.3342 28.9507 10.3914 28.6581 10.3907ZM22.3082 12.8751C21.3318 12.2226 20.1838 11.8744 19.0095 11.8744C17.4353 11.8761 15.926 12.5022 14.8128 13.6153C13.6997 14.7285 13.0736 16.2377 13.0719 17.812C13.0719 18.9863 13.4201 20.1343 14.0726 21.1107C14.725 22.0871 15.6523 22.8482 16.7373 23.2976C17.8222 23.747 19.0161 23.8646 20.1678 23.6355C21.3196 23.4064 22.3776 22.8409 23.208 22.0105C24.0384 21.1801 24.6039 20.1221 24.833 18.9703C25.0621 17.8186 24.9445 16.6247 24.4951 15.5398C24.0457 14.4548 23.2847 13.5275 22.3082 12.8751ZM14.0616 10.4069C15.5262 9.42833 17.2481 8.90601 19.0095 8.90601C21.3715 8.90601 23.6368 9.84431 25.307 11.5145C26.9771 13.1847 27.9155 15.45 27.9155 17.812C27.9155 19.5734 27.3931 21.2953 26.4145 22.7599C25.4359 24.2244 24.045 25.3659 22.4176 26.04C20.7903 26.7141 18.9996 26.8905 17.272 26.5468C15.5444 26.2032 13.9575 25.355 12.712 24.1094C11.4665 22.8639 10.6183 21.277 10.2746 19.5494C9.93101 17.8219 10.1074 16.0312 10.7814 14.4038C11.4555 12.7765 12.597 11.3855 14.0616 10.4069Z" fill="white"/>
</svg>
