<svg width="37" height="36" viewBox="0 0 37 36" fill="none" xmlns="http://www.w3.org/2000/svg">
<g clip-path="url(#clip0_417_195)">
<path d="M33.5888 0.00390625H3.86543C2.2413 0.00390625 0.822266 1.17252 0.822266 2.77758V32.5669C0.822266 34.1807 2.2413 35.6188 3.86543 35.6188H33.58C35.2129 35.6188 36.4372 34.1712 36.4372 32.5669V2.77758C36.4467 1.17252 35.2129 0.00390625 33.5888 0.00390625ZM11.8621 29.6907H6.75994V13.8269H11.8621V29.6907ZM9.4875 11.415H9.45093C7.81805 11.415 6.76074 10.1995 6.76074 8.67789C6.76074 7.12848 7.84588 5.94158 9.51533 5.94158C11.1848 5.94158 12.2063 7.11973 12.2429 8.67789C12.2421 10.1995 11.1848 11.415 9.4875 11.415ZM30.5091 29.6907H25.4069V21.0167C25.4069 18.9386 24.6644 17.5188 22.8185 17.5188C21.4082 17.5188 20.5734 18.4728 20.2022 19.4021C20.0631 19.736 20.0257 20.1907 20.0257 20.655V29.6907H14.9235V13.8269H20.0257V16.0346C20.7682 14.9773 21.9281 13.4557 24.627 13.4557C27.9763 13.4557 30.5098 15.6633 30.5098 20.4228L30.5091 29.6907Z" fill="white"/>
</g>
<defs>
<clipPath id="clip0_417_195">
<rect width="36" height="36" fill="white" transform="translate(0.5)"/>
</clipPath>
</defs>
</svg>
