<svg width="30" height="36" viewBox="0 0 30 36" fill="none" xmlns="http://www.w3.org/2000/svg">
<g clip-path="url(#clip0_417_199)">
<path d="M25.7959 3.65695C23.3448 1.30382 19.9525 0.0078125 16.2443 0.0078125C10.5798 0.0078125 7.09583 2.32977 5.17065 4.27755C2.79799 6.67797 1.4375 9.86528 1.4375 13.0223C1.4375 16.9862 3.09553 20.0287 5.87208 21.1606C6.05847 21.2369 6.24605 21.2754 6.42994 21.2754C7.0157 21.2754 7.47982 20.8921 7.64062 20.2773C7.73437 19.9246 7.95151 19.0545 8.04596 18.6767C8.24808 17.9308 8.08477 17.572 7.64396 17.0525C6.84092 16.1023 6.46695 14.9787 6.46695 13.5164C6.46695 9.1729 9.70121 4.55666 15.6956 4.55666C20.4519 4.55666 23.4065 7.25997 23.4065 11.6115C23.4065 14.3575 22.815 16.9005 21.7406 18.7725C20.9941 20.0733 19.6813 21.6238 17.666 21.6238C16.7945 21.6238 16.0116 21.2658 15.5177 20.6416C15.0511 20.0516 14.8972 19.2895 15.0849 18.4951C15.2969 17.5977 15.5861 16.6615 15.8659 15.7565C16.3762 14.1036 16.8586 12.5423 16.8586 11.2968C16.8586 9.16629 15.5488 7.73472 13.5996 7.73472C11.1225 7.73472 9.1818 10.2506 9.1818 13.4625C9.1818 15.0377 9.60043 16.2159 9.78996 16.6682C9.47788 17.9904 7.62323 25.8511 7.27144 27.3333C7.06801 28.1986 5.84266 35.033 7.87083 35.5779C10.1496 36.1902 12.1865 29.534 12.3939 28.7819C12.5619 28.1702 13.1498 25.8571 13.5101 24.4353C14.6102 25.4949 16.3814 26.2113 18.1049 26.2113C21.354 26.2113 24.276 24.7492 26.3327 22.0946C28.3273 19.5198 29.4259 15.9311 29.4259 11.9901C29.4257 8.90916 28.1026 5.87173 25.7959 3.65695Z" fill="white"/>
</g>
<defs>
<clipPath id="clip0_417_199">
<rect width="29" height="36" fill="white" transform="translate(0.5)"/>
</clipPath>
</defs>
</svg>
