<svg width="38" height="26" viewBox="0 0 38 26" fill="none" xmlns="http://www.w3.org/2000/svg">
<g clip-path="url(#clip0_417_203)">
<path d="M35.6478 2.43253C34.3624 0.904495 31.9892 0.28125 27.4568 0.28125H11.0044C6.36834 0.28125 3.95486 0.944765 2.67429 2.57156C1.42578 4.1576 1.42578 6.49464 1.42578 9.72924V15.8943C1.42578 22.1606 2.90714 25.3422 11.0044 25.3422H27.4569C31.3874 25.3422 33.5653 24.7922 34.9743 23.4437C36.4193 22.0609 37.0358 19.8031 37.0358 15.8943V9.72924C37.0358 6.31812 36.9392 3.96731 35.6478 2.43253ZM24.2875 13.6629L16.8165 17.5674C16.6495 17.6547 16.4668 17.6981 16.2845 17.6981C16.0779 17.6981 15.8718 17.6425 15.6893 17.532C15.3456 17.3237 15.1358 16.9512 15.1358 16.5494V8.7652C15.1358 8.3641 15.345 7.99186 15.6881 7.78349C16.0312 7.57511 16.4579 7.56086 16.8139 7.74579L24.2849 11.6252C24.665 11.8226 24.9037 12.215 24.9042 12.6431C24.9047 13.0717 24.6671 13.4646 24.2875 13.6629Z" fill="white"/>
</g>
<defs>
<clipPath id="clip0_417_203">
<rect width="37" height="26" fill="white" transform="translate(0.5)"/>
</clipPath>
</defs>
</svg>
