<svg width="110" height="110" viewBox="0 0 110 110" fill="none" xmlns="http://www.w3.org/2000/svg">
<rect x="30" width="5" height="5" rx="2.5" fill="#A1A1A1"/>
<rect x="45" width="5" height="5" rx="2.5" fill="#A1A1A1"/>
<rect x="60" width="5" height="5" rx="2.5" fill="#A1A1A1"/>
<rect x="75" width="5" height="5" rx="2.5" fill="#A1A1A1"/>
<rect x="15" y="15" width="5" height="5" rx="2.5" fill="#A1A1A1"/>
<rect x="30" y="15" width="5" height="5" rx="2.5" fill="#A1A1A1"/>
<rect x="45" y="15" width="5" height="5" rx="2.5" fill="#A1A1A1"/>
<rect x="60" y="15" width="5" height="5" rx="2.5" fill="#A1A1A1"/>
<rect x="75" y="15" width="5" height="5" rx="2.5" fill="#A1A1A1"/>
<rect x="90" y="15" width="5" height="5" rx="2.5" fill="#A1A1A1"/>
<rect x="15" y="30" width="5" height="5" rx="2.5" fill="#A1A1A1"/>
<rect x="30" y="30" width="5" height="5" rx="2.5" fill="#A1A1A1"/>
<rect x="45" y="30" width="5" height="5" rx="2.5" fill="#A1A1A1"/>
<rect x="60" y="30" width="5" height="5" rx="2.5" fill="#A1A1A1"/>
<rect x="75" y="30" width="5" height="5" rx="2.5" fill="#A1A1A1"/>
<rect x="90" y="30" width="5" height="5" rx="2.5" fill="#A1A1A1"/>
<rect y="45" width="5" height="5" rx="2.5" fill="#A1A1A1"/>
<rect x="15" y="45" width="5" height="5" rx="2.5" fill="#A1A1A1"/>
<rect x="30" y="45" width="5" height="5" rx="2.5" fill="#A1A1A1"/>
<rect x="45" y="45" width="5" height="5" rx="2.5" fill="#A1A1A1"/>
<rect x="60" y="45" width="5" height="5" rx="2.5" fill="#A1A1A1"/>
<rect x="75" y="45" width="5" height="5" rx="2.5" fill="#A1A1A1"/>
<rect x="90" y="45" width="5" height="5" rx="2.5" fill="#A1A1A1"/>
<rect x="105" y="45" width="5" height="5" rx="2.5" fill="#A1A1A1"/>
<rect y="60" width="5" height="5" rx="2.5" fill="#A1A1A1"/>
<rect x="15" y="60" width="5" height="5" rx="2.5" fill="#A1A1A1"/>
<rect x="30" y="60" width="5" height="5" rx="2.5" fill="#A1A1A1"/>
<rect x="45" y="60" width="5" height="5" rx="2.5" fill="#A1A1A1"/>
<rect x="60" y="60" width="5" height="5" rx="2.5" fill="#A1A1A1"/>
<rect x="75" y="60" width="5" height="5" rx="2.5" fill="#A1A1A1"/>
<rect x="90" y="60" width="5" height="5" rx="2.5" fill="#A1A1A1"/>
<rect x="105" y="60" width="5" height="5" rx="2.5" fill="#A1A1A1"/>
<rect x="15" y="75" width="5" height="5" rx="2.5" fill="#A1A1A1"/>
<rect x="30" y="75" width="5" height="5" rx="2.5" fill="#A1A1A1"/>
<rect x="45" y="75" width="5" height="5" rx="2.5" fill="#A1A1A1"/>
<rect x="60" y="75" width="5" height="5" rx="2.5" fill="#A1A1A1"/>
<rect x="75" y="75" width="5" height="5" rx="2.5" fill="#A1A1A1"/>
<rect x="90" y="75" width="5" height="5" rx="2.5" fill="#A1A1A1"/>
<rect x="15" y="90" width="5" height="5" rx="2.5" fill="#A1A1A1"/>
<rect x="30" y="90" width="5" height="5" rx="2.5" fill="#A1A1A1"/>
<rect x="45" y="90" width="5" height="5" rx="2.5" fill="#A1A1A1"/>
<rect x="60" y="90" width="5" height="5" rx="2.5" fill="#A1A1A1"/>
<rect x="75" y="90" width="5" height="5" rx="2.5" fill="#A1A1A1"/>
<rect x="90" y="90" width="5" height="5" rx="2.5" fill="#A1A1A1"/>
<rect x="30" y="105" width="5" height="5" rx="2.5" fill="#A1A1A1"/>
<rect x="45" y="105" width="5" height="5" rx="2.5" fill="#A1A1A1"/>
<rect x="60" y="105" width="5" height="5" rx="2.5" fill="#A1A1A1"/>
<rect x="75" y="105" width="5" height="5" rx="2.5" fill="#A1A1A1"/>
</svg>
