<svg width="22" height="22" viewBox="0 0 22 22" fill="none" xmlns="http://www.w3.org/2000/svg">
<g clip-path="url(#clip0_330_206)">
<path d="M5.80015 11.7172H8.21171V21.6452C8.21171 21.8412 8.37053 22 8.56654 22H12.6554C12.8514 22 13.0103 21.8412 13.0103 21.6452V11.764H15.7825C15.9628 11.764 16.1145 11.6287 16.135 11.4497L16.5561 7.79467C16.5677 7.69411 16.5358 7.59341 16.4685 7.51797C16.4012 7.44246 16.3048 7.39924 16.2037 7.39924H13.0104V5.10812C13.0104 4.41746 13.3823 4.06723 14.1158 4.06723C14.2203 4.06723 16.2037 4.06723 16.2037 4.06723C16.3997 4.06723 16.5585 3.90834 16.5585 3.71239V0.357465C16.5585 0.161452 16.3997 0.00262581 16.2037 0.00262581H13.3263C13.306 0.00163226 13.2609 0 13.1945 0C12.6952 0 10.9599 0.0980064 9.58905 1.3591C8.0702 2.7566 8.28133 4.42988 8.33178 4.71999V7.39917H5.80015C5.60414 7.39917 5.44531 7.55799 5.44531 7.75401V11.3623C5.44531 11.5583 5.60414 11.7172 5.80015 11.7172Z" fill="white"/>
</g>
<defs>
<clipPath id="clip0_330_206">
<rect width="22" height="22" fill="white"/>
</clipPath>
</defs>
</svg>
