<svg width="37" height="36" viewBox="0 0 37 36" fill="none" xmlns="http://www.w3.org/2000/svg">
<path fill-rule="evenodd" clip-rule="evenodd" d="M25.9306 2.96839C27.8972 2.97426 29.7817 3.75813 31.1723 5.14878C32.563 6.53944 33.3469 8.42388 33.3527 10.3906V25.2333C33.3469 27.2 32.563 29.0844 31.1723 30.4751C29.7817 31.8657 27.8972 32.6496 25.9306 32.6555H11.0878C9.12115 32.6496 7.2367 31.8657 5.84605 30.4751C4.45539 29.0844 3.67153 27.2 3.66566 25.2333V10.3906C3.67153 8.42388 4.45539 6.53944 5.84605 5.14878C7.2367 3.75813 9.12115 2.97426 11.0878 2.96839H25.9306ZM25.9306 0H11.0878C5.3729 0 0.697266 4.67563 0.697266 10.3906V25.2333C0.697266 30.9482 5.3729 35.6239 11.0878 35.6239H25.9306C31.6455 35.6239 36.3211 30.9482 36.3211 25.2333V10.3906C36.3211 4.67563 31.6455 0 25.9306 0ZM28.1581 10.3907C27.7178 10.3907 27.2873 10.2601 26.9212 10.0155C26.555 9.77085 26.2696 9.42311 26.1011 9.01628C25.9326 8.60944 25.8885 8.16177 25.9744 7.72987C26.0603 7.29797 26.2724 6.90125 26.5838 6.58987C26.8951 6.27849 27.2919 6.06644 27.7238 5.98053C28.1557 5.89462 28.6033 5.93871 29.0102 6.10723C29.417 6.27574 29.7647 6.56112 30.0094 6.92726C30.254 7.29341 30.3846 7.72388 30.3846 8.16424C30.3853 8.4568 30.3281 8.74661 30.2164 9.01702C30.1048 9.28744 29.9408 9.53313 29.7339 9.74001C29.527 9.94688 29.2813 10.1109 29.0109 10.2225C28.7405 10.3342 28.4507 10.3914 28.1581 10.3907ZM21.8082 12.8751C20.8318 12.2226 19.6838 11.8744 18.5095 11.8744C16.9353 11.8761 15.426 12.5022 14.3128 13.6153C13.1997 14.7285 12.5736 16.2377 12.5719 17.812C12.5719 18.9863 12.9201 20.1343 13.5726 21.1107C14.225 22.0871 15.1523 22.8482 16.2373 23.2976C17.3222 23.747 18.5161 23.8646 19.6678 23.6355C20.8196 23.4064 21.8776 22.8409 22.708 22.0105C23.5384 21.1801 24.1039 20.1221 24.333 18.9703C24.5621 17.8186 24.4445 16.6247 23.9951 15.5398C23.5457 14.4548 22.7847 13.5275 21.8082 12.8751ZM13.5616 10.4069C15.0262 9.42833 16.7481 8.90601 18.5095 8.90601C20.8715 8.90601 23.1368 9.84431 24.807 11.5145C26.4771 13.1847 27.4155 15.45 27.4155 17.812C27.4155 19.5734 26.8931 21.2953 25.9145 22.7599C24.9359 24.2244 23.545 25.3659 21.9176 26.04C20.2903 26.7141 18.4996 26.8905 16.772 26.5468C15.0444 26.2032 13.4575 25.355 12.212 24.1094C10.9665 22.8639 10.1183 21.277 9.77464 19.5494C9.43101 17.8219 9.60737 16.0312 10.2814 14.4038C10.9555 12.7765 12.097 11.3855 13.5616 10.4069Z" fill="#FF743C"/>
</svg>
