<svg width="36" height="36" viewBox="0 0 36 36" fill="none" xmlns="http://www.w3.org/2000/svg">
<path d="M33.0888 0.00439453H3.36543C1.7413 0.00439453 0.322266 1.17301 0.322266 2.77807V32.5674C0.322266 34.1812 1.7413 35.6193 3.36543 35.6193H33.08C34.7129 35.6193 35.9372 34.1717 35.9372 32.5674V2.77807C35.9467 1.17301 34.7129 0.00439453 33.0888 0.00439453ZM11.3621 29.6912H6.25994V13.8274H11.3621V29.6912ZM8.9875 11.4155H8.95093C7.31805 11.4155 6.26074 10.2 6.26074 8.67838C6.26074 7.12897 7.34588 5.94207 9.01533 5.94207C10.6848 5.94207 11.7063 7.12022 11.7429 8.67838C11.7421 10.2 10.6848 11.4155 8.9875 11.4155ZM30.0091 29.6912H24.9069V21.0172C24.9069 18.9391 24.1644 17.5193 22.3185 17.5193C20.9082 17.5193 20.0734 18.4733 19.7022 19.4026C19.5631 19.7365 19.5257 20.1912 19.5257 20.6555V29.6912H14.4235V13.8274H19.5257V16.0351C20.2682 14.9778 21.4281 13.4562 24.127 13.4562C27.4763 13.4562 30.0098 15.6638 30.0098 20.4233L30.0091 29.6912Z" fill="#FF743C"/>
</svg>
