<svg width="29" height="36" viewBox="0 0 29 36" fill="none" xmlns="http://www.w3.org/2000/svg">
<path d="M25.2959 3.65622C22.8448 1.30309 19.4525 0.00708008 15.7443 0.00708008C10.0798 0.00708008 6.59583 2.32904 4.67065 4.27682C2.29799 6.67724 0.9375 9.86455 0.9375 13.0216C0.9375 16.9855 2.59553 20.028 5.37208 21.1599C5.55847 21.2362 5.74605 21.2747 5.92994 21.2747C6.5157 21.2747 6.97982 20.8914 7.14062 20.2766C7.23437 19.9239 7.45151 19.0538 7.54596 18.676C7.74808 17.9301 7.58477 17.5713 7.14396 17.0518C6.34092 16.1016 5.96695 14.978 5.96695 13.5157C5.96695 9.17217 9.20121 4.55593 15.1956 4.55593C19.9519 4.55593 22.9065 7.25924 22.9065 11.6108C22.9065 14.3568 22.315 16.8998 21.2406 18.7718C20.4941 20.0726 19.1813 21.6231 17.166 21.6231C16.2945 21.6231 15.5116 21.2651 15.0177 20.6409C14.5511 20.0509 14.3972 19.2888 14.5849 18.4944C14.7969 17.597 15.0861 16.6608 15.3659 15.7558C15.8762 14.1029 16.3586 12.5416 16.3586 11.2961C16.3586 9.16556 15.0488 7.73399 13.0996 7.73399C10.6225 7.73399 8.6818 10.2499 8.6818 13.4618C8.6818 15.037 9.10043 16.2152 9.28996 16.6675C8.97788 17.9897 7.12323 25.8504 6.77144 27.3326C6.56801 28.1979 5.34266 35.0323 7.37083 35.5772C9.6496 36.1895 11.6865 29.5333 11.8939 28.7812C12.0619 28.1695 12.6498 25.8564 13.0101 24.4346C14.1102 25.4942 15.8814 26.2106 17.6049 26.2106C20.854 26.2106 23.776 24.7485 25.8327 22.0939C27.8273 19.5191 28.9259 15.9304 28.9259 11.9894C28.9257 8.90843 27.6026 5.871 25.2959 3.65622Z" fill="#FF743C"/>
</svg>
