<svg width="1884" height="404" viewBox="0 0 1884 404" fill="none" xmlns="http://www.w3.org/2000/svg">
<path d="M1860.06 375.121C1867.92 383.782 1875.39 392.686 1882 402C1875.42 392.662 1867.98 383.742 1860.15 375.064C1815.46 326.059 1752.49 281.784 1675.35 273.332C1637.23 269.062 1598.07 274.807 1563.04 287.279C1558.33 288.786 1554.05 290.768 1549.58 292.638C1531.95 300.26 1514.84 308.591 1498.12 317.446C1492.45 320.331 1487.31 323.707 1481.68 326.583C1448.43 344.205 1412.1 358.547 1373.55 366.805C1360.7 369.513 1347.58 371.422 1334.37 372.397C1319.09 374.226 1303.5 374.831 1288.01 374.71C1249.46 374.291 1210.28 368.788 1175.63 354.728C1168.74 351.964 1162.02 348.781 1155.65 345.284C1126.55 329.726 1098.63 312.757 1072.31 294.249C1047.5 277.852 1022.64 261.448 996.157 246.799C992.937 245.091 989.448 243.343 986.088 241.868C981.819 240.071 977.829 237.807 973.65 235.857C965.211 231.893 956.483 228.332 947.564 225.149C918.229 214.546 886.853 207.576 855.178 203.346C851.029 202.863 844.87 202.145 840.701 201.662C835.071 201.05 828.812 200.921 823.113 200.8C815.624 200.623 795.898 200.155 788.179 199.97C785.029 199.881 779.74 199.825 776.601 199.591C735.817 196.384 690.204 189.391 656.199 170.174C625.974 155.397 599.938 135.495 576.081 114.61C571.792 110.775 562.853 102.516 558.774 98.4795L557.714 97.4643L556.734 96.4169L554.715 94.2655C526.069 64.816 484.606 26.3824 441.892 11.2668C400.429 -2.2373 349.876 -2.0117 312.102 18.8085C299.474 25.1738 286.916 35.3906 276.748 44.9949C266.409 54.7282 257.171 65.3881 248.592 76.1446C231.155 97.4401 213.637 118.953 194.09 138.976C189.171 145.124 183.042 150.804 176.823 156.154C150.467 178.328 116.472 194.33 79.8779 202.726C78.7781 203 77.6483 203.201 76.5284 203.443L69.8195 204.837L63.0505 206.005L59.661 206.585C40.354 209.445 20.667 210.606 1.00005 210.058" stroke="url(#paint0_linear_339_447)" stroke-width="4"/>
<defs>
<linearGradient id="paint0_linear_339_447" x1="1.2899" y1="402" x2="1882" y2="401.453" gradientUnits="userSpaceOnUse">
<stop stop-color="#F8B9C4"/>
<stop offset="1" stop-color="#F8B9C4" stop-opacity="0"/>
</linearGradient>
</defs>
</svg>
