<svg width="1884" height="404" viewBox="0 0 1884 404" fill="none" xmlns="http://www.w3.org/2000/svg">
<path d="M23.9366 375.121C16.0778 383.782 8.60898 392.686 2 402C8.57899 392.662 16.0178 383.742 23.8466 375.064C68.5397 326.059 131.51 281.784 208.648 273.332C246.772 269.062 285.926 274.807 320.961 287.279C325.67 288.786 329.949 290.768 334.419 292.638C352.046 300.26 369.163 308.591 385.881 317.446C391.55 320.331 396.689 323.707 402.318 326.583C435.573 344.205 471.898 358.547 510.452 366.805C523.3 369.513 536.418 371.422 549.626 372.397C564.913 374.226 580.501 374.831 595.988 374.71C634.542 374.291 673.716 368.788 708.371 354.728C715.26 351.964 721.979 348.781 728.348 345.284C757.454 329.726 785.369 312.757 811.685 294.249C836.501 277.852 861.357 261.448 887.843 246.799C891.063 245.091 894.552 243.343 897.912 241.868C902.181 240.071 906.171 237.807 910.35 235.857C918.789 231.893 927.517 228.332 936.436 225.149C965.771 214.546 997.147 207.576 1028.82 203.346C1032.97 202.863 1039.13 202.145 1043.3 201.662C1048.93 201.05 1055.19 200.921 1060.89 200.8C1068.38 200.623 1088.1 200.155 1095.82 199.97C1098.97 199.881 1104.26 199.825 1107.4 199.591C1148.18 196.384 1193.8 189.391 1227.8 170.174C1258.03 155.397 1284.06 135.495 1307.92 114.61C1312.21 110.775 1321.15 102.516 1325.23 98.4795L1326.29 97.4643L1327.27 96.4169L1329.29 94.2655C1357.93 64.816 1399.39 26.3824 1442.11 11.2668C1483.57 -2.2373 1534.12 -2.0117 1571.9 18.8085C1584.53 25.1738 1597.08 35.3906 1607.25 44.9949C1617.59 54.7282 1626.83 65.3881 1635.41 76.1446C1652.85 97.4401 1670.36 118.953 1689.91 138.976C1694.83 145.124 1700.96 150.804 1707.18 156.154C1733.53 178.328 1767.53 194.33 1804.12 202.726C1805.22 203 1806.35 203.201 1807.47 203.443L1814.18 204.837L1820.95 206.005L1824.34 206.585C1843.65 209.445 1863.33 210.606 1883 210.058" stroke="url(#paint0_linear_339_447)" stroke-width="4"/>
<defs>
<linearGradient id="paint0_linear_339_447" x1="1882.71" y1="402" x2="2.00015" y2="401.453" gradientUnits="userSpaceOnUse">
<stop stop-color="#F8B9C4"/>
<stop offset="1" stop-color="#F8B9C4" stop-opacity="0"/>
</linearGradient>
</defs>
</svg>
