<svg width="37" height="26" viewBox="0 0 37 26" fill="none" xmlns="http://www.w3.org/2000/svg">
<path d="M35.1478 2.43277C33.8624 0.904739 31.4892 0.281494 26.9568 0.281494H10.5044C5.86834 0.281494 3.45486 0.945009 2.17429 2.5718C0.925781 4.15784 0.925781 6.49488 0.925781 9.72948V15.8945C0.925781 22.1608 2.40714 25.3424 10.5044 25.3424H26.9569C30.8874 25.3424 33.0653 24.7924 34.4743 23.4439C35.9193 22.0611 36.5358 19.8033 36.5358 15.8945V9.72948C36.5358 6.31836 36.4392 3.96755 35.1478 2.43277ZM23.7875 13.6631L16.3165 17.5676C16.1495 17.6549 15.9668 17.6983 15.7845 17.6983C15.5779 17.6983 15.3718 17.6427 15.1893 17.5322C14.8456 17.3239 14.6358 16.9514 14.6358 16.5496V8.76544C14.6358 8.36434 14.845 7.9921 15.1881 7.78373C15.5312 7.57535 15.9579 7.5611 16.3139 7.74603L23.7849 11.6254C24.165 11.8228 24.4037 12.2152 24.4042 12.6433C24.4047 13.0719 24.1671 13.4648 23.7875 13.6631Z" fill="#FF743C"/>
</svg>
